<?xml version="1.0" encoding="UTF-8"?><svg id="Layer_2" xmlns="http://www.w3.org/2000/svg" viewBox="0 0 202.86 108.07"><defs><style>.cls-1{fill:#abb0b2;}</style></defs><g id="tablas"><path class="cls-1" d="M136.72,103.14s8.82,0,8.82-8.82-8.82-35.3-44.12-35.3-44.12,26.47-44.12,35.3,8.82,8.82,8.82,8.82h70.59ZM66.32,94.31l-.19-.04c0-2.33,1.47-9.09,6.71-15.18,4.87-5.71,13.43-11.26,28.59-11.26s23.71,5.56,28.59,11.26c5.23,6.09,6.69,12.86,6.71,15.18l-.07.02-.12.02h-70.21Z"/><path class="cls-1" d="M44.12,63.95C8.82,63.95,0,90.42,0,99.24c0,5.88,2.94,8.82,8.82,8.82h37.2c-1.31-2.76-1.96-5.78-1.91-8.82,0-8.91,3.33-18.02,9.62-25.63,2.14-2.59,4.64-5.02,7.47-7.2-3.53-1.1-7.17-1.83-10.85-2.18-2.07-.2-4.15-.3-6.23-.29ZM43.42,72.78h0c-5.22,7.85-8.03,17.04-8.11,26.46H8.82c0-2.29,1.45-9.09,6.71-15.21,4.81-5.61,13.16-11.08,27.88-11.25,0,0,0,0,0,0h0Z"/><path class="cls-1" d="M34.73,5.61c-14.62,0-26.47,11.85-26.47,26.47s11.85,26.47,26.47,26.47,26.47-11.85,26.47-26.47S49.35,5.61,34.73,5.61ZM34.73,49.61c-9.68,0-17.53-7.85-17.53-17.53s7.85-17.53,17.53-17.53,17.53,7.85,17.53,17.53-7.85,17.53-17.53,17.53Z"/><path class="cls-1" d="M158.74,63.95c35.3,0,44.12,26.47,44.12,35.3,0,5.88-2.94,8.82-8.82,8.82h-37.2c1.31-2.76,1.96-5.78,1.91-8.82,0-8.91-3.33-18.02-9.62-25.63-2.14-2.59-4.64-5.02-7.47-7.2,3.53-1.1,7.17-1.83,10.85-2.18,2.07-.2,4.15-.3,6.23-.29ZM159.45,72.78h0c5.22,7.85,8.03,17.04,8.11,26.46h26.47c0-2.29-1.45-9.09-6.71-15.21-4.81-5.61-13.16-11.08-27.88-11.25,0,0,0,0,0,0h0Z"/><path class="cls-1" d="M168.13,5.61c14.62,0,26.47,11.85,26.47,26.47s-11.85,26.47-26.47,26.47-26.47-11.85-26.47-26.47,11.85-26.47,26.47-26.47ZM168.13,49.61c9.68,0,17.53-7.85,17.53-17.53s-7.85-17.53-17.53-17.53-17.53,7.85-17.53,17.53,7.85,17.53,17.53,17.53Z"/><path class="cls-1" d="M101.43,0c-14.62,0-26.47,11.85-26.47,26.47s11.85,26.47,26.47,26.47,26.47-11.85,26.47-26.47S116.05,0,101.43,0ZM101.43,44c-9.68,0-17.53-7.85-17.53-17.53s7.85-17.53,17.53-17.53,17.53,7.85,17.53,17.53-7.85,17.53-17.53,17.53Z"/></g></svg>