<?xml version="1.0" encoding="UTF-8"?><svg id="Layer_2" xmlns="http://www.w3.org/2000/svg" viewBox="0 0 623 568.65"><g id="nosotros"><g id="_1rKe7c.tif"><path d="M372.25,568.65h-43.79l-19.51-5.1c-7.54-1.97-16.15-8.09-16.58-17.14l-5.52-116.34c-1.58-33.31.3-65.29,7.58-97.32,8.64-37.98,42.95-63.1,79.24-59.33,16.53,16.77,35.19,29.69,56.07,37.61,36.11,13.71,73.29-1.45,97.07-30.28,7.24-8.78,12.21-7.36,21.39-5.05,57.84,14.57,69.36,58.46,73.71,111.61,1.8,22.04,1.16,43.94-.17,66.02l-5.9,97.99c-.61,10.21-7.87,14.42-17.4,14.65-76.41,1.88-151.84-2.83-226.18,2.67Z"/><path d="M0,522.44v-94.85c0-9.07,2.54-22.38,3.58-33.04l9.51-96.81c7.42-5.9,14.25-13.77,21.77-17.31l77.95-36.65c6.99-3.29,14.51.57,17.58,7.85,10.66,25.3,17.91,50.99,23.65,78.06,2.1,9.91,4.63,18.78,9.5,28.56l17.45-85.72c1.16-5.68-8.98-18.55-2.12-22.86,9.51-5.77,22.95-3.42,29.81,6.42,2.56,3.67-3.05,14.2-3.3,18.73l13.28,80.8,30.43-102.43c1.01-3.41,3.9-8.66,6.51-9.75,6.32-2.64,57.08,15.78,53.31,27.24-3.01,9.14-31.5,26.08-38.65,84.23-8.02,65.15,5.25,124.09.32,194.3-.64,9.18-6.89,13.76-15.09,14.04l-52.34,1.82c-34.91,1.21-69.72,2.8-104.76.12l-90.52-6.93c-10.59-12.44-1.18-29.39-7.85-35.82Z"/><path d="M497.66,219.08c-11.29,24.51-38.27,34.05-61.49,20.71-7.88-4.53-14.39-11.76-20.06-19.58-22.76-2.11-45.52-6.15-64.02-20.75-2.66-2.1-6.66-6.49-6.95-9.22-.28-2.73,3.31-7.45,5.6-10.49,41.8-55.3,14.15-167.4,106.66-169.12,30.62-.57,55.56,15.75,61.61,47.37l14.31,74.7c7.74,40.39,35.88,43.7,35.28,60.16-.59,16.23-53.08,26.37-70.94,26.22Z"/><path d="M260.68,169.53c-11.77,32.56-47.32,65.73-82.63,43.43-63.24-20.09-75.05-108.56-50.46-163.82C140.07,21.09,164.68,3.06,195.58.22c23.9-2.2,45.34,12.54,57.18,34.18,22.41,40.94,23.85,91.07,7.92,135.13Z"/></g></g></svg>