<?xml version="1.0" encoding="UTF-8"?><svg id="Layer_2" xmlns="http://www.w3.org/2000/svg" viewBox="0 0 585.05 346.67"><g id="nosotros"><path d="M581.46,190.34c-3.3-2.59-8.1-2.29-11.33.75-3.15,2.97-3.64,7.58-1.07,11.71-6.54,5.03-14.57,9.45-23.02,7.55-19.09-4.31-21.76-45.58-21.79-61.13,6.27-.31,10.49-4.39,11.31-9.83.87-5.76-2.66-11.03-7.8-12.5-5.87-1.68-11.44.96-13.77,6-2.49,5.38-.72,11.35,4.48,14.62-9.32,13.85-22.18,28.52-37.71,34.46-18.51,7.08-32.53-4.77-41.26-19.97-10.58-18.41-16.12-40.78-20.11-61.58,6.88-1.66,10.58-7.42,10.02-14.02-.52-6.13-5.49-11.18-12.03-11.57-6.02-.35-11.84,3.52-13.37,9.67-1.5,6.03,1.25,12.48,7.67,15.35-5.25,16.24-13.78,35.8-24.26,49.24-4.21,5.4-9.18,10.18-15.52,12.91-16.85,7.25-30.8-12.86-37.43-25.52-14.92-28.49-24.57-66.52-31.76-98.3,8.05-4.95,11.87-13.61,9.75-22.67-1.93-8.23-9-14.72-18.02-15.44-6.4-.51-12.11,1.65-16.44,5.95-4.47,4.46-6.35,10.56-5.62,17.14.69,6.22,4.38,11.44,10.02,14.91-5.82,25.82-27.7,125.74-62.01,125.41-23.21-.23-40.93-45.34-47.01-63.67,6.35-2.74,9.26-8.97,7.76-15.2-1.48-6.16-7.12-10.23-13.48-9.77-6.28.45-11.35,5.17-11.92,11.49-.59,6.54,3.14,12.35,10.04,14.13-4.65,23.79-13.59,60.86-32.33,76.55-24.78,20.73-53.61-9.14-66.62-29.48,4.83-3.27,6.73-9.24,4.53-14.19-2.44-5.49-7.97-8.13-13.92-6.48-5.15,1.43-8.63,6.63-7.92,12.38.68,5.44,5.25,9.77,11.43,9.97-.17,15.71-2.75,52.32-19.02,59.91-6.9,4.56-20.4-.78-25.52-6.49,1.59-3.89,1.95-8.55-1.37-11.53-3.23-2.89-7.83-3.37-11.36-.82-3.46,2.5-4.61,7.23-2.91,10.71,2.13,4.39,6.3,6.21,11.39,4.8,6.97,15.12,11.98,30.58,16.45,46.65,8.08,29.09,13.64,58.47,18.03,88.29.34,2.28.92,3.86,2.68,4.87,1.4.8,3.77,1.63,5.66.53,19.38-11.26,39.76-20.11,61.41-27.18,45.58-14.9,101.65-24.72,149.53-26.12l15.71-.46c7.53-.22,15-.21,22.53,0l15.78.45c53.15,1.51,123.05,14.42,172.7,34.92,12.34,5.09,23.96,10.56,35.41,17.31,2.24,1.32,4.04,2.1,6.58,1.12,1.97-.76,3.44-2.46,3.84-5.02l4.4-27.61c4.99-31.36,16.7-79.16,30.12-107.75,4.55,1.49,9.05-.35,11.04-4.21,2.02-3.91.94-8.49-2.58-11.25ZM82.09,270.58c-5.93,0-10.74-4.81-10.74-10.74s4.81-10.74,10.74-10.74,10.74,4.81,10.74,10.74-4.81,10.74-10.74,10.74ZM168.61,245.63c-5.93,0-10.73-4.8-10.73-10.73s4.8-10.73,10.73-10.73,10.73,4.8,10.73,10.73-4.8,10.73-10.73,10.73ZM303.06,230.24c-.35,6.55-2.56,20.9-10.69,21.08-7.18.17-10.15-14.3-10.19-20-1.91-14.67,3.23-30.89,10.34-44.24,6.74,12.19,12.24,29.23,10.54,43.15ZM416.49,245.61c-5.92,0-10.72-4.8-10.72-10.72s4.8-10.72,10.72-10.72,10.72,4.8,10.72,10.72-4.8,10.72-10.72,10.72ZM503.02,270.57c-5.93,0-10.73-4.81-10.73-10.73s4.81-10.73,10.73-10.73,10.73,4.81,10.73,10.73-4.81,10.73-10.73,10.73Z"/></g></svg>