<?xml version="1.0" encoding="UTF-8"?><svg id="Layer_2" xmlns="http://www.w3.org/2000/svg" viewBox="0 0 296.43 594.51"><defs><style>.cls-1{opacity:.77;}</style></defs><g id="nosotros"><path class="cls-1" d="M168.39,374.81c2.9-38.38,21.09-67.98,53.99-90.61,58.6-40.31,82.33-98.44,71.52-168.12-5.89-37.97-18.53-74.91-28.48-112.22-.46-1.73-4.39-3.59-6.72-3.6C223.99.02,189.29.07,154.59.1c-1.89,0-3.78.29-6.21.51l49.08,143.14,5.07,14.81c.27,1.09.45,2.13.59,3.26.45,2.94.68,5.98.68,9.11,0,13.8-4.53,26.48-12.08,36.5-9.58,13.23-24.79,22.08-42.81,22.37-30.38.48-53.52-22.87-55.79-51.29-.3-2.48-.48-5.01-.48-7.58,0-3.13.23-6.16.68-9.11.14-1.13.32-2.17.59-3.26l5.03-14.77,35.92-104.9c4.22-12.62,8.47-25.31,12.77-38.17-2.01-.32-2.91-.59-3.8-.59C107.95.1,72.09.17,36.22,0c-3.98-.02-5.19,1.75-5.99,5.06-1.69,7.01-3.65,13.95-5.47,20.93C17.2,55.04,7.12,83.71,2.59,113.22c-11.14,72.6,13.59,131.17,74.33,173.84,8.69,6.11,17.25,12.87,24.33,20.72,18.78,20.84,26.32,46.78,27.47,73.89,1.78,41.85,2.01,83.79,1.76,125.68-.19,31.32-21.47,56.08-52.77,56.1-14.55.01-26.74,16.04-25.64,31.06h192.44c-.07-16.73-11.96-30.96-27.27-31.21-25.95-.42-46.71-18.71-50.64-47.59-1.37-10.09-1.36-20.44-1.18-30.65.67-36.76.21-73.63,2.97-110.25Z"/></g></svg>