<?xml version="1.0" encoding="UTF-8"?><svg id="Layer_2" xmlns="http://www.w3.org/2000/svg" viewBox="0 0 701.18 658.5"><g id="nosotros"><path d="M593.99,0H107.19C48.24,0,0,48.24,0,107.19v444.12c0,58.95,48.24,107.19,107.19,107.19h486.8c58.95,0,107.19-48.24,107.19-107.19V107.19c0-58.95-48.24-107.19-107.19-107.19ZM580.23,639.89H120.95c-55.62,0-101.13-45.51-101.13-101.13V121.94h661.55v416.81c0,55.62-45.51,101.13-101.13,101.13Z"/><path d="M212.07,423.44c-13.3-8.71-23.51-21.07-30.63-37.09-7.12-16.02-10.69-35.02-10.69-57.02v-.29c0-22,3.56-41.01,10.69-57.03,7.12-16.02,17.34-28.35,30.63-37.01,13.29-8.66,29.12-12.99,47.49-12.99s34.17,4.33,47.42,12.99c13.25,8.66,23.43,20.99,30.56,37.01,7.12,16.02,10.69,35.03,10.69,57.03v.29c0,22-3.56,41.01-10.69,57.02-7.13,16.02-17.31,28.38-30.56,37.09-13.25,8.71-29.05,13.05-47.42,13.05s-34.19-4.35-47.49-13.05ZM278.86,387.57c5.31-5.16,9.32-12.65,12.05-22.45,2.73-9.8,4.09-21.73,4.09-35.79v-.29c0-14.06-1.36-25.97-4.09-35.73-2.72-9.75-6.74-17.21-12.05-22.38-5.31-5.16-11.74-7.75-19.3-7.75s-13.99,2.58-19.29,7.75c-5.31,5.17-9.35,12.63-12.12,22.38-2.77,9.76-4.16,21.66-4.16,35.73v.29c0,14.06,1.39,25.99,4.16,35.79,2.77,9.81,6.81,17.29,12.12,22.45,5.31,5.17,11.74,7.75,19.29,7.75s13.99-2.58,19.3-7.75Z"/><path d="M372.47,396.89l73.31-64.41c8.7-7.65,15.25-14.03,19.66-19.16,4.4-5.11,7.39-9.68,8.97-13.7,1.58-4.01,2.37-8.13,2.37-12.34v-.29c0-4.97-1.17-9.35-3.51-13.13-2.35-3.78-5.57-6.74-9.68-8.9-4.11-2.15-8.9-3.23-14.35-3.23-6.22,0-11.65,1.22-16.29,3.66-4.64,2.44-8.25,5.81-10.83,10.11-2.58,4.3-4.02,9.24-4.3,14.78l-.14,1.58h-48.2v-1.29c0-13.49,3.39-25.39,10.18-35.72,6.79-10.33,16.19-18.39,28.19-24.17,12-5.79,25.75-8.68,41.25-8.68s29.55,2.61,41.32,7.82c11.77,5.22,20.92,12.44,27.47,21.67,6.55,9.23,9.83,20.01,9.83,32.35v.29c0,8.8-1.53,16.76-4.59,23.89-3.06,7.13-8.03,14.44-14.92,21.95-6.89,7.51-16.07,16.24-27.55,26.19l-61.69,52.65,21.38-36.15v36.15l-21.23-16.64h111.33v40.6h-157.96v-35.87Z"/></g></svg>