<?xml version="1.0" encoding="UTF-8"?><svg id="Layer_2" xmlns="http://www.w3.org/2000/svg" viewBox="0 0 832.05 832.05"><g id="nosotros"><path d="M832.05,416.03c0,229.76-186.26,416.03-416.03,416.03S0,645.79,0,416.03,186.26,0,416.03,0s416.03,186.26,416.03,416.03ZM345.57,570.94c17.42,17.39,46.04,14.33,61.54-4.26l206.12-247.35c16.49-19.79,12.62-46.16-3.94-59.74-18.41-15.11-44.15-12.54-59.4,5.73l-178.24,213.66-91.81-91.58c-17.74-17.69-45.78-17.35-62.36,2.12-12.58,14.78-13.64,39.96,3.34,56.91l124.75,124.51Z"/></g></svg>