<?xml version="1.0" encoding="UTF-8"?><svg id="Layer_2" xmlns="http://www.w3.org/2000/svg" viewBox="0 0 536.56 523.32"><g id="nosotros"><g id="iE2Rap"><path d="M224.21,0c1.63,40.93-3.17,81.57,1.2,125.21,9.39,93.78,56.18,182.97,127.26,244.22,40.66,35.04,132.2,9.27,168.54,35,16.06,11.37,17.48,35.04,13.43,52.69-3.97,17.3-17.75,33.41-36.85,41-70.75,28.13-117.91,35.36-188.48,8.05-62.17-24.06-103.47-16.32-170.83-12.97-21.5,1.07-43.93-3.85-65.08-7.06-38.13-5.77-62.29-31.66-73.4-66.21v-28.47c10.61-45.97,17.36-94.5,15.33-143.56L6.69,39.26c-.59-14.33,1.45-28.02-3.13-39.26h220.65ZM94.14,183c-.39-3.86-10.13-9.14-12.99-6.84-12.41,10.01,4.22,59.32-8.65,120.91-1.22,5.83,2.67,13.58,7.31,14.25,24.34,3.5,16.03-111.33,14.33-128.31ZM260.61,352.83c1.8-4.38-.19-13.03-3.82-14.77-4.29-2.06-12.66,2.55-14.35,7.21-13.88,38.26-53.74,52.25-92.05,40.58-5.01-1.52-13.98,3.24-14.47,7.81-2.08,19.3,93.51,34.84,124.69-40.83Z"/></g><path d="M433.42,247.13c-9.64,12.3-20.06,20.96-32.45,20.64-13.3-.34-23.36-9.18-31.43-20.87-14.76-43.62,7.12-94.63,31.81-132.64,25.08,39.65,46.24,88.22,32.07,132.87Z"/><rect x="68" y="166" width="45" height="175" rx="12" ry="12"/><rect x="131" y="328" width="141" height="101" rx="12" ry="12"/></g></svg>