<?xml version="1.0" encoding="UTF-8"?><svg id="Layer_2" xmlns="http://www.w3.org/2000/svg" viewBox="0 0 772.81 739.05"><g id="nosotros"><g id="_07z7Ni.tif"><path d="M128.8,399.14c9.34,40.16,25.14,77.53,48.85,111.32,4.56,6.5,4.28,10.28-1.76,15.26-9.78,8.05-19.25,16.54-28.2,25.48-5.83,5.83-10.73,6.52-18.83,3.72-36.35-12.56-70.12-6.73-98.27,19.84-28.77,27.15-37.36,61.19-25.24,98.79,11.75,36.44,37.96,58.14,75.74,64.27,66.53,10.79,122.53-51.26,105.97-117.4-2.28-9.09-.76-14.55,6.31-20.2,9.35-7.47,18.28-15.57,26.66-24.11,6.07-6.18,10.19-6.1,16.99-.42,53.1,44.34,114.18,69.87,183.25,75.48,185.94,15.08,347.32-129.56,352.43-315.69C777.8,149,626.31-3.78,440.11.07,232.98,4.35,82.4,197.39,128.8,399.14ZM389.38,73.8c138.77-31.82,277.38,55.26,309.35,194.35,32.06,139.46-54.96,278.26-194.48,310.18-138.46,31.68-278.74-55.57-309.86-192.72-32.05-141.24,54.47-279.59,195-311.81ZM68.22,650.12c-3.24-14.78,6.63-30.24,21.41-33.56,14.66-3.29,29.36,6.14,32.57,20.87,3.28,15.08-6.24,30.03-21.31,33.46-14.6,3.33-29.47-6.13-32.67-20.77Z"/><path d="M679.56,270.78c-29.88-129.28-156.43-208.01-286.17-178.04-128.68,29.73-209.85,159.67-179.97,288.1,30.11,129.44,157.22,209.01,285.86,178.96,129.4-30.24,210.16-159.71,180.27-289.02ZM399.29,113.59c117.33-26.73,232.3,45.3,259.17,162.38,27.08,118-47.35,236.13-165.67,262.91-116.29,26.33-231.65-46.33-258.28-162.67-26.9-117.54,47.34-235.87,164.78-262.63Z"/></g></g></svg>