<?xml version="1.0" encoding="UTF-8"?><svg id="Layer_2" xmlns="http://www.w3.org/2000/svg" viewBox="0 0 849.79 922.15"><g id="nosotros"><path d="M446.87,922.1l-41,.04c-60.38-2.77-110.79-51.87-110.89-113.4l-.29-187.3c-119.71-78.67-141.8-243.6-49.14-350.61,92.6-106.95,257.88-108.45,352.58-3.27,94.69,105.19,75.53,270.16-41.92,350.94l-.18,188.21c-.06,61.26-47.88,111.22-109.15,115.38ZM507.08,712.52v-106.52c0-9.25,4.67-16.98,11.53-21.45,100.26-60.44,120.95-195.28,44.98-282.19-76-86.95-211.17-84.93-284.5,4.54-72.91,88.97-48.48,222.51,53.15,280.22,6.62,4.26,11.2,11.51,11.2,20.47l.04,104.99,163.6-.06Z"/><path d="M446.93,125.15c0,13.68-9.23,23.13-21.14,23.56-12.84.47-22.95-9.34-22.93-22.83l.11-104.57c.01-13.09,11.22-21.72,22.82-21.31,12.05.43,21.09,9.97,21.1,22.93l.04,102.21Z"/><path d="M651.58,229.54c-9.54,9.55-24.15,8.13-32.14-.67s-7.76-21.98,1.25-30.99l72.91-72.92c9-9,22.45-9.19,31.15-1.25,8.7,7.94,9.87,22.76.92,31.72l-74.09,74.11Z"/><path d="M154.87,726.17c-9.47,9.46-24.55,6.71-31.9-2.24-7.51-9.13-6.47-21.99,2.52-30.93l73.9-73.56c8.69-8.65,23.22-6.83,30.84,1.39,7.5,8.1,8.24,21.82-.57,30.62l-74.79,74.73Z"/><path d="M228.8,197.62c9.77,9.75,9.18,23.54.88,31.91-9.3,9.39-23.26,8.28-32.52-1.03l-72.61-73.01c-8.75-8.8-8.62-22.17-.59-30.65,7.77-8.21,22.01-9.86,30.82-1.08l74.03,73.85Z"/><path d="M724.78,693.62c9.36,9.34,9.2,22.84.88,31.57-7.68,8.06-21.85,9.61-30.74.72l-75.23-75.24c-8.63-8.63-7.34-21.97.09-29.96,7.73-8.32,22.13-9.79,30.98-.96l74.02,73.88Z"/><path d="M131.13,446.14l-111.72.35c-12.58.04-20.2-12.62-19.35-23.41.89-11.21,9.99-20.25,22.6-20.25l102.91-.04c12.12,0,21.23,7.85,22.85,18.92,1.34,9.14-4.36,24.39-17.29,24.43Z"/><path d="M831.52,446.28l-111.64.14c-12.26.02-19.41-13.09-18.67-23.07.89-11.95,10.57-20.59,23.34-20.58l103.03.08c11.82,0,20.52,8.56,22.01,19,1.41,9.9-4.94,24.41-18.08,24.43Z"/></g></svg>