<?xml version="1.0" encoding="UTF-8"?><svg id="Layer_2" xmlns="http://www.w3.org/2000/svg" viewBox="0 0 467 283.06"><g id="nosotros"><circle cx="227.5" cy="98.06" r="52"/><path d="M432.5,4.06c-8.61,1.72-17.22,7.16-18.16,15.66.1,1.33.16,2.66.16,4.01v56.02c0,50.22-41.09,91.31-91.31,91.31h-179.39c-50.22,0-91.31-41.09-91.31-91.31V20.94c0-.51.02-1.02.04-1.53C48.2,11.51,45.83,1,36.5.06,25.08-.48,13.37,2.53,3.61,8.44,1.24,21.79,0,35.53,0,49.56c0,128.96,104.54,233.5,233.5,233.5s233.5-104.54,233.5-233.5c0-13.74-1.2-27.2-3.47-40.29-10.16-4.11-19.59-7.66-31.03-5.21Z"/></g></svg>