<?xml version="1.0" encoding="UTF-8"?><svg id="Layer_2" xmlns="http://www.w3.org/2000/svg" viewBox="0 0 668.38 633.48"><g id="nosotros"><g id="Cordero"><path d="M323.56,610.41c1.69-12.08-.02-24.64-.35-36.99-.08-2.93-.72-5.85-.34-9.11,8.73,10.55,16.42,21.52,19.26,35.36,1.59,7.74,3.27,15.6,6.22,22.87,3.93,9.7,10.48,11.32,18.86,5.18,11.65-8.55,20.16-19.79,25.59-33.16,3.73-9.19.79-17.98-5.98-23.82-26.71-23.04-38.7-55.33-54.64-85.1-2.58-4.81-3.01-11.25-2.92-16.92.21-14.87.57-29.8,2.17-44.57,1.51-13.92,3.49-28.02,7.46-41.38,3.72-12.52,13.74-20.56,26.59-23.83,34.41-8.75,69.37-11.53,104.78-9.16,6.33.42,10.02,4.04,12.76,8.93,6.17,11.03,12.02,22.24,18.06,33.35,10.21,18.75,20.3,37.59,36.95,51.78,1.18,1,2,2.88,2.23,4.46,6.8,46.05,11.76,92.22,1.23,138.31-2.76,12.07-8.6,23.44-13.72,36.97,8.83,1.16,18.31,3.41,27.79,3.43,14.48.03,24.53-8.43,27.44-22.61,6.76-32.94,12.78-66.04,19.54-98.99,1.98-9.65,5.29-19.04,8.27-28.46.77-2.43,2.58-4.54,4.93-6.55,6.81,54.72,16.69,109.37-5.31,163.08h46.61c2.71-3.23,5.01-7.05,6.81-11.37v-246.45c-1.18-.66-2.36-1.31-3.53-1.97-15.91-8.96-19.9-17.16-15.18-34.99,5.4-20.35,12.11-40.36,17.26-60.77,6-23.76,7.97-47.98,3.66-72.32-6.13-34.59-24.97-60.73-54.8-78.64-39.1-23.47-81.28-37.76-127.17-39.69-23.02-.97-45.29,2.8-67.38,9.53-30.06,9.16-60.25,18.18-90.87,25.14-23.84,5.42-48.36,7.97-72.67,11.12-15.11,1.95-28.83-3.09-41.72-10.82-5.67-3.4-7.18-7.66-4.72-13.73,1.58-3.89,2.47-8.07,4.06-11.95,3.64-8.9,8.88-15.13,19.66-16.76,15.55-2.35,30.13-8.35,42.62-18.25,11.67-9.25,11.21-18.62-1.99-25.44-10.49-5.42-21.73-11.4-33.1-12.54-10.94-1.09-22.64,3.11-33.68,6.17-5.52,1.53-8.44,1.29-12.53-3.22-27.29-30.06-59.15-34.84-97.91-12.86-5.25,2.98-10.45,7.31-13.67,12.31-4.21,6.52-8.65,7.78-16.16,7.39-14.02-.72-28.15.45-42.23,1.02-2.42.1-4.85,1.01-7.2,1.77-16.99,5.48-18.78,11.35-7.23,24.64,13.8,15.88,30.63,25.65,52.35,25.8,2.3.02,5.52,2.55,6.73,4.78,8.48,15.67,16.6,31.53,24.65,47.43.92,1.81.8,4.2.94,6.33.87,13.08.67,26.32,2.74,39.19,2.68,16.65,12.05,28.13,30.06,30.16,4.65.52,7.2,2.81,9.33,7.1,22.48,45.3,45.61,90.28,67.71,135.76,9.28,19.1,24.66,26.73,44.37,28.71,12.46,1.25,24.18,18.49,20.18,30.62-9.15,27.72-9.04,55.57-5.93,84.45,2.85,26.46,1.13,53.45.6,80.19-.1,5.18-3.53,10.56-6.26,15.38-5.59,9.89-12.11,19.26-17.48,29.26-1.2,2.22-1.91,4.86-2.27,7.55h79.11c5.08-6.17,8.11-14.15,9.36-23.07Z"/></g></g></svg>