<?xml version="1.0" encoding="UTF-8"?><svg id="Layer_2" xmlns="http://www.w3.org/2000/svg" viewBox="0 0 770.05 503.94"><g id="nosotros"><path d="M533.4,162.16c-14.69,0-26.53,5.04-35.52,15.11-8.99,10.08-13.49,25.27-13.49,45.58s4.62,35.14,13.85,45.46c9.23,10.32,20.95,15.47,35.16,15.47s25.87-5.12,34.98-15.35c9.11-10.24,13.67-25.59,13.67-46.06s-4.44-35.32-13.31-45.28c-8.87-9.95-20.65-14.93-35.34-14.93Z"/><path d="M767.3,221.89c-7.16-34.17-22.92-63.25-45.12-90.21,8.85-25.73,39.45-14.17,43.67-38.11,1.82-10.34-4.35-20.54-12.05-24.2-9.52-4.52-21.19-2.69-28.76,5.35-10.01,10.63-12.64,24.95-16.15,42.06-43.99-33.76-93.89-55.16-150.44-57.59-67.71-2.91-133.41-.78-201.29,1.66l-107,3.84c-3.48-23.54-9.27-41.85-20.98-64.69-36.93,22.87-60.13,39.79-69.44,84.08-1.9,9.03-7.37,15.15-13.52,21.42-22.16,22.6-43.68,44.24-69.11,62.94-32.84,24.15-50.38,5.19-69.38,18.1-6.01,20.24-14.81,53.59,2.03,71.04,20.13,20.86,45.91,35.92,69.39,52.79,37.89,27.23,77.84,47.67,120.06,66.22l5.41,58.46c3.9,42.19-15.42,34.76-12.49,65.41,14.84,1.74,28.44,2.19,42.49.43,22.09-2.76,20.58-31.28,32.74-42.48l-11.28,41.58c18.66,5.03,36.06,5.76,54.68-.76,7.5-2.62,11.05-14.16,12.28-21.75l12.5-77.06c64.69,4.31,130.13,3.95,196.08-2.02l8.85,43.05c4.37,21.27-13.9,32.31-14.76,57.58,16.63,4.38,37.55,3.58,50.03-.23,17.33-5.29,17.85-39.92,26.3-40.35l-12.8,41.48c20.8,6.16,41.56,5.61,59.67-4.92l14.4-99.47c1.42-9.8,5.57-20.84,13.55-26.36l49.16-34.01c36.89-25.52,50.36-69.81,41.26-113.28ZM417.2,311.24h-35.76l-71.17-115.12v115.12h-33.11v-176.53h34.68l72.25,117.89v-117.89h33.12v176.53ZM595.66,290.1c-15.49,16.1-36.21,24.14-62.14,24.14s-47.12-8.01-62.62-24.02c-15.5-16.02-23.24-38.07-23.24-66.17,0-17.98,2.69-33.07,8.07-45.28,4.01-8.99,9.49-17.06,16.44-24.2,6.94-7.14,14.55-12.44,22.82-15.89,11-4.66,23.68-6.98,38.05-6.98,26.01,0,46.82,8.07,62.44,24.2,15.61,16.14,23.42,38.58,23.42,67.31s-7.75,50.8-23.24,66.89Z"/></g></svg>