<?xml version="1.0" encoding="UTF-8"?><svg id="Layer_2" xmlns="http://www.w3.org/2000/svg" viewBox="0 0 562.3 562.07"><g id="nosotros"><path d="M106.97,532.4l-78.75-78.96C7.22,432.38-3.08,402.11.81,372.7c4.52-34.22,27.71-60.7,58.24-75.28,41.72-19.92,73.55-9.81,98.69-38.11,28.32-31.88,29.38-55.64,61.53-74.9,22.59-13.53,49.54-11.03,68.97,6.25l25.19,22.42,135.34-135.23,35.41,35.32-135.21,135.3,21.7,24.37c17.57,19.74,20.9,46.69,6.85,69.87-18.94,31.26-41.9,33.29-73.48,60.25-31.84,27.18-18.25,63.55-43.71,107.96-17.66,30.8-48.19,51.92-84.27,51.12-25.43-.57-50.34-10.86-69.08-29.64ZM290.3,314.44c0-24.08-19.52-43.6-43.6-43.6s-43.6,19.52-43.6,43.6,19.52,43.6,43.6,43.6,43.6-19.52,43.6-43.6ZM137.49,362.52l-15.15,15.16,61.91,61.86,15.15-15.16-61.91-61.86Z"/><polygon points="562.3 43.55 493.42 104.11 458.06 69.12 518.17 0 562.3 43.55"/></g></svg>